<svg width="28" height="28" viewBox="0 0 28 28" fill="none" xmlns="http://www.w3.org/2000/svg">
<rect x="9" y="11" width="10" height="12" fill="#C5C6CE"/>
<path d="M5 17.86C5 22.167 8.52143 25.2144 13.4921 25.2144C19.1264 25.2144 23 21.5711 23 15.5846C23 6.25281 14.8059 2 8.83296 2C7.88487 2 7.42439 2.46051 7.42439 3.00226C7.42439 3.43567 7.65461 3.80134 8.00678 4.30249C8.86006 5.46727 10.2957 7.16027 10.2957 9.30024C10.2957 9.47629 10.2822 9.66591 10.2686 9.84199C9.67268 8.73138 8.61624 7.94581 7.34311 7.94581C6.99098 7.94581 6.80136 8.16253 6.80136 8.47403C6.80136 8.83973 6.88261 9.11062 6.88261 10.2619C6.88261 12.4831 5 13.9729 5 17.86ZM13.7088 22.2348C11.5824 22.2348 10.1738 20.9481 10.1738 19.0384C10.1738 17.0339 11.5959 16.316 11.7855 15.0293C11.7991 14.921 11.8668 14.8939 11.9481 14.9616C12.4763 15.4221 12.8013 15.991 13.0587 16.6546C13.1129 16.763 13.1941 16.7765 13.2483 16.6817C13.8307 15.6659 13.9391 14.149 13.8036 12.2393C13.7765 12.1309 13.8578 12.0767 13.9526 12.1174C16.4582 13.2686 17.7449 15.7607 17.7449 17.9955C17.7449 20.2438 16.4176 22.2348 13.7088 22.2348Z" fill="#6E7185"/>
</svg>
