<svg width="28" height="28" viewBox="0 0 28 28" fill="none" xmlns="http://www.w3.org/2000/svg">
<path opacity="0.4" d="M19.3651 5.63399H15.9315C15.0761 5.63964 14.264 5.25914 13.7219 4.59876L12.5912 3.03556C12.0583 2.36938 11.2462 1.9871 10.3921 2.00033H7.96471C3.60789 2.00033 2.00001 4.55735 2.00001 8.90531V13.6053C1.99459 14.1221 25.3283 14.1215 25.3298 13.6053V12.2387C25.3505 7.89079 23.7841 5.63399 19.3651 5.63399Z" fill="#FF641A"/>
<path fill-rule="evenodd" clip-rule="evenodd" d="M23.9708 7.30071C24.3441 7.73714 24.6325 8.23917 24.8214 8.78109C25.1931 9.89488 25.3652 11.0653 25.3297 12.2387V18.3673C25.3282 18.8835 25.2901 19.399 25.2156 19.9098C25.0738 20.8113 24.7566 21.6764 24.282 22.4565C24.0639 22.8332 23.799 23.1811 23.4936 23.4917C22.1114 24.7603 20.2758 25.4207 18.4003 25.324H8.91905C7.04058 25.42 5.20205 24.7599 3.81534 23.4917C3.51364 23.1804 3.25226 22.8327 3.03734 22.4565C2.56554 21.677 2.25514 20.811 2.12448 19.9098C2.0414 19.3998 1.99978 18.884 2 18.3673V12.2387C1.9998 11.7269 2.0275 11.2154 2.08299 10.7066C2.09466 10.6173 2.11216 10.5295 2.12948 10.4426C2.15835 10.2977 2.18672 10.1554 2.18672 10.013C2.29202 9.39896 2.48412 8.80294 2.75726 8.24277C3.56638 6.51394 5.22612 5.63399 7.94395 5.63399H19.3547C20.8769 5.51626 22.3878 5.97452 23.587 6.91767C23.7251 7.03478 23.8535 7.16288 23.9708 7.30071ZM7.79865 17.7979H19.5413H19.5621C19.8197 17.8091 20.0711 17.7169 20.2602 17.5418C20.4493 17.3668 20.5602 17.1235 20.5683 16.8662C20.5829 16.6401 20.5084 16.4172 20.3608 16.2451C20.191 16.0137 19.922 15.8756 19.6347 15.8724H7.79865C7.26584 15.8724 6.83392 16.3034 6.83392 16.8351C6.83392 17.3669 7.26584 17.7979 7.79865 17.7979Z" fill="#FF641A"/>
</svg>
