<svg width="28" height="28" viewBox="0 0 28 28" fill="none" xmlns="http://www.w3.org/2000/svg">
<path d="M15.4793 25.1615C14.5617 25.6816 13.4383 25.6816 12.5207 25.1615L8.78 23.0413L5.07348 20.8619C4.16424 20.3272 3.60256 19.3544 3.59418 18.2997L3.56 14L3.59418 9.70035C3.60256 8.64561 4.16424 7.67275 5.07348 7.13812L8.78 4.95869L12.5207 2.83847C13.4383 2.31836 14.5617 2.31836 15.4793 2.83847L19.22 4.95869L22.9265 7.13812C23.8358 7.67275 24.3974 8.6456 24.4058 9.70035L24.44 14L24.4058 18.2997C24.3974 19.3544 23.8358 20.3272 22.9265 20.8619L19.22 23.0413L15.4793 25.1615Z" fill="#FF641A"/>
<circle cx="14" cy="14" r="4" fill="#FFE0D1"/>
</svg>
